<svg xmlns="http://www.w3.org/2000/svg" width="800" height="800" viewBox="0 0 800 800"><defs><linearGradient id="bg-headphones-03" x1="0" y1="0" x2="0" y2="1"><stop offset="0" stop-color="#f5f8ff"/><stop offset="1" stop-color="#e2ecff"/></linearGradient></defs><rect width="800" height="800" fill="url(#bg-headphones-03)"/><path d="M400 178 C 268 178 196 274 196 400 L196 430 L268 430 L268 372 C 268 296 322 250 400 250 C 478 250 532 296 532 372 L532 430 L604 430 L604 400 C 604 274 532 178 400 178 Z" fill="#4a76d4"/><rect x="158" y="398" width="104" height="202" rx="42" fill="#4a76d4"/><rect x="538" y="398" width="104" height="202" rx="42" fill="#4a76d4"/><rect x="180" y="424" width="60" height="150" rx="28" fill="#93b2e9"/><rect x="560" y="424" width="60" height="150" rx="28" fill="#93b2e9"/></svg>